<svg width="17" height="16" viewBox="0 0 17 16" fill="none" xmlns="http://www.w3.org/2000/svg">
<path d="M12.727 2H3.39364C2.65726 2 2.0603 2.59695 2.0603 3.33333V12.6667C2.0603 13.403 2.65726 14 3.39364 14H12.727C13.4633 14 14.0603 13.403 14.0603 12.6667V3.33333C14.0603 2.59695 13.4633 2 12.727 2Z" stroke="#64748B" stroke-linecap="round" stroke-linejoin="round"/>
<path d="M8.1064 10.8072C6.4603 10.8072 5.38843 9.66426 5.38843 7.83223C5.38843 6.01113 6.45483 4.84082 8.09546 4.84082C9.20562 4.84082 10.1572 5.43145 10.4087 6.23535C10.4416 6.32832 10.4634 6.42676 10.4634 6.50879C10.4634 6.80957 10.2501 6.99551 9.9603 6.99551C9.70874 6.99551 9.56655 6.89707 9.42437 6.63457C9.12905 6.0877 8.72437 5.8252 8.11733 5.8252C7.19312 5.8252 6.59155 6.59629 6.59155 7.82129C6.59155 9.07363 7.20405 9.81738 8.11733 9.81738C8.75718 9.81738 9.14546 9.53301 9.42437 9.03535C9.58843 8.75098 9.71421 8.65254 9.97124 8.65254C10.2611 8.65254 10.4744 8.84941 10.4744 9.14473C10.4744 9.2377 10.4525 9.33613 10.4087 9.45098C10.108 10.2439 9.1728 10.8072 8.1064 10.8072Z" fill="#64748B"/>
</svg>
