<svg width="17" height="17" viewBox="0 0 17 17" fill="none" xmlns="http://www.w3.org/2000/svg">
<g id="Info">
<path id="Vector" fill-rule="evenodd" clip-rule="evenodd" d="M9.47801 5.46699C9.47801 5.90882 9.11983 6.26699 8.67801 6.26699C8.23618 6.26699 7.87801 5.90882 7.87801 5.46699C7.87801 5.02516 8.23618 4.66699 8.67801 4.66699C9.11983 4.66699 9.47801 5.02516 9.47801 5.46699ZM7.07812 7.06699H7.61146H8.67812C8.97268 7.06699 9.21146 7.30577 9.21146 7.60033V11.3337H9.74479H10.2781V12.4003H9.74479H8.67812H7.61146H7.07812V11.3337H7.61146H8.14479V8.13366H7.61146H7.07812V7.06699Z" fill="#6B7280"/>
<path id="Vector_2" d="M8.67838 15.3333C12.3603 15.3333 15.3451 12.3486 15.3451 8.66667C15.3451 4.98477 12.3603 2 8.67838 2C4.99649 2 2.01172 4.98477 2.01172 8.66667C2.01172 12.3486 4.99649 15.3333 8.67838 15.3333Z" stroke="#6B7280" strokeLinecap="round" strokeLinejoin="round"/>
</g>
</svg>
