<svg width="17" height="16" viewBox="0 0 17 16" fill="none" xmlns="http://www.w3.org/2000/svg">
<path d="M6.54642 11.8482H2.98291V8.28467C2.98291 7.6426 3.04712 7.04333 3.17553 6.48687C3.32535 5.909 3.53937 5.40604 3.81761 4.97799C4.11724 4.54994 4.49178 4.2075 4.94123 3.95068C5.39069 3.69385 5.91505 3.56543 6.51432 3.56543V5.17061C6.15047 5.17061 5.85084 5.26693 5.61541 5.45955C5.37999 5.63077 5.18736 5.86619 5.03755 6.16583C4.88773 6.46546 4.78072 6.8079 4.71651 7.19315C4.6737 7.55699 4.6523 7.92083 4.6523 8.28467H6.54642V11.8482ZM12.4214 11.8482H8.85788V8.28467C8.85788 7.6426 8.92209 7.04333 9.05051 6.48687C9.20032 5.909 9.41435 5.40604 9.69258 4.97799C9.99221 4.54994 10.3668 4.2075 10.8162 3.95068C11.2657 3.69385 11.79 3.56543 12.3893 3.56543V5.17061C12.0254 5.17061 11.7258 5.26693 11.4904 5.45955C11.255 5.63077 11.0623 5.86619 10.9125 6.16583C10.7627 6.46546 10.6557 6.8079 10.5915 7.19315C10.5487 7.55699 10.5273 7.92083 10.5273 8.28467H12.4214V11.8482Z" fill="#64748B"/>
</svg>
