<svg width="16" height="26" viewBox="0 0 16 26" fill="none" xmlns="http://www.w3.org/2000/svg">
<path d="M6.48612 16.8482H2.92261V13.2847C2.92261 12.6426 2.98681 12.0433 3.11523 11.4869C3.26505 10.909 3.47907 10.406 3.7573 9.97799C4.05694 9.54994 4.43148 9.2075 4.88093 8.95068C5.33038 8.69385 5.85474 8.56543 6.45401 8.56543V10.1706C6.09017 10.1706 5.79054 10.2669 5.55511 10.4595C5.31968 10.6308 5.12706 10.8662 4.97724 11.1658C4.82743 11.4655 4.72041 11.8079 4.65621 12.1931C4.6134 12.557 4.592 12.9208 4.592 13.2847H6.48612V16.8482ZM12.3611 16.8482H8.79758V13.2847C8.79758 12.6426 8.86179 12.0433 8.9902 11.4869C9.14002 10.909 9.35405 10.406 9.63228 9.97799C9.93191 9.54994 10.3065 9.2075 10.7559 8.95068C11.2054 8.69385 11.7297 8.56543 12.329 8.56543V10.1706C11.9651 10.1706 11.6655 10.2669 11.4301 10.4595C11.1947 10.6308 11.002 10.8662 10.8522 11.1658C10.7024 11.4655 10.5954 11.8079 10.5312 12.1931C10.4884 12.557 10.467 12.9208 10.467 13.2847H12.3611V16.8482Z" fill="#020617"/>
</svg>
