<svg width="17" height="16" viewBox="0 0 17 16" fill="none" xmlns="http://www.w3.org/2000/svg">
<path d="M6.98612 11.8482H3.42261V8.28467C3.42261 7.6426 3.48681 7.04333 3.61523 6.48687C3.76505 5.909 3.97907 5.40604 4.2573 4.97799C4.55694 4.54994 4.93148 4.2075 5.38093 3.95068C5.83038 3.69385 6.35474 3.56543 6.95401 3.56543V5.17061C6.59017 5.17061 6.29054 5.26693 6.05511 5.45955C5.81968 5.63077 5.62706 5.86619 5.47724 6.16583C5.32743 6.46546 5.22041 6.8079 5.15621 7.19315C5.1134 7.55699 5.092 7.92083 5.092 8.28467H6.98612V11.8482ZM12.8611 11.8482H9.29758V8.28467C9.29758 7.6426 9.36179 7.04333 9.4902 6.48687C9.64002 5.909 9.85405 5.40604 10.1323 4.97799C10.4319 4.54994 10.8065 4.2075 11.2559 3.95068C11.7054 3.69385 12.2297 3.56543 12.829 3.56543V5.17061C12.4651 5.17061 12.1655 5.26693 11.9301 5.45955C11.6947 5.63077 11.502 5.86619 11.3522 6.16583C11.2024 6.46546 11.0954 6.8079 11.0312 7.19315C10.9884 7.55699 10.967 7.92083 10.967 8.28467H12.8611V11.8482Z" fill="#64748B"/>
</svg>

