<svg width="17" height="16" viewBox="0 0 17 16" fill="none" xmlns="http://www.w3.org/2000/svg">
<path d="M4.06038 1.33318C3.70676 1.33318 3.36762 1.47366 3.11757 1.7237C2.86753 1.97375 2.72705 2.31289 2.72705 2.66651V13.3332C2.72705 13.6868 2.86753 14.0259 3.11757 14.276C3.36762 14.526 3.70676 14.6665 4.06038 14.6665H12.0604C12.414 14.6665 12.7531 14.526 13.0032 14.276C13.2532 14.0259 13.3937 13.6868 13.3937 13.3332V2.83303C13.3937 2.0046 12.7221 1.33302 11.8937 1.33304L4.06038 1.33318Z" stroke="#64748B" stroke-linecap="round" stroke-linejoin="round"/>
<path d="M8.72693 6H5.39355" stroke="#64748B" stroke-linecap="round" stroke-linejoin="round"/>
<path d="M10.7269 8.6665H5.39355" stroke="#64748B" stroke-linecap="round" stroke-linejoin="round"/>
<path d="M10.7269 11.3335H5.39355" stroke="#64748B" stroke-linecap="round" stroke-linejoin="round"/>
</svg>
